inDegrees=no
num_controls=7
num_derivatives=13
num_iterations=133
num_multipliers=7
num_parameters=0
num_slacks=7
num_states=26
objective=0.477046
objective_accelerations=0.044174
objective_balance=0.003612
objective_effort=0.040333
objective_height=0.383246
objective_ligament=0.005680
solver_duration=1834.597790
status=Solve_Succeeded
success=true
DataType=double
version=3
OpenSimVersion=4.5
endheader
time	/jointset/ground_pelvis/pelvis_tilt/value	/jointset/ground_pelvis/pelvis_tx/value	/jointset/ground_pelvis/pelvis_ty/value	/jointset/hip_l/hip_flexion_l/value	/jointset/hip_l/hip_adduction_l/value	/jointset/hip_l/hip_rotation_l/value	/jointset/back/lumbar_extension/value	/jointset/patellofemoral_l/patellar_flexion_l/value	/jointset/knee_l/knee_flexion_l/value	/jointset/knee_l/knee_adduction_l/value	/jointset/knee_l/knee_rotation_l/value	/jointset/ankle_l/ankle_angle_l/value	/jointset/subtalar_l/subtalar_angle_l/value	/jointset/ground_pelvis/pelvis_tilt/speed	/jointset/ground_pelvis/pelvis_tx/speed	/jointset/ground_pelvis/pelvis_ty/speed	/jointset/hip_l/hip_flexion_l/speed	/jointset/hip_l/hip_adduction_l/speed	/jointset/hip_l/hip_rotation_l/speed	/jointset/back/lumbar_extension/speed	/jointset/patellofemoral_l/patellar_flexion_l/speed	/jointset/knee_l/knee_flexion_l/speed	/jointset/knee_l/knee_adduction_l/speed	/jointset/knee_l/knee_rotation_l/speed	/jointset/ankle_l/ankle_angle_l/speed	/jointset/subtalar_l/subtalar_angle_l/speed	/forceset/tau_hip_flexion_l	/forceset/tau_hip_adduction_l	/forceset/tau_hip_rotation_l	/forceset/tau_knee_flexion_l	/forceset/tau_ankle_angle_l	/forceset/tau_subtalar_angle_l	/forceset/tau_lumbar_extension	lambda_cid13_p0	lambda_cid13_p1	lambda_cid13_p2	lambda_cid13_p3	lambda_cid13_p4	lambda_cid13_p5	lambda_cid14_p0	/jointset/ground_pelvis/pelvis_tilt/accel	/jointset/ground_pelvis/pelvis_tx/accel	/jointset/ground_pelvis/pelvis_ty/accel	/jointset/hip_l/hip_flexion_l/accel	/jointset/hip_l/hip_adduction_l/accel	/jointset/hip_l/hip_rotation_l/accel	/jointset/back/lumbar_extension/accel	/jointset/patellofemoral_l/patellar_flexion_l/accel	/jointset/knee_l/knee_flexion_l/accel	/jointset/knee_l/knee_adduction_l/accel	/jointset/knee_l/knee_rotation_l/accel	/jointset/ankle_l/ankle_angle_l/accel	/jointset/subtalar_l/subtalar_angle_l/accel	gamma_cid13_p0	gamma_cid13_p1	gamma_cid13_p2	gamma_cid13_p3	gamma_cid13_p4	gamma_cid13_p5	gamma_cid14_p0
0.5	-0.09356289235941759	-0.04112177315567573	0.8070686516420279	0.9280985157841584	-0.3301971759637066	-0.07792649464082645	-0.7901657078003396	0.9208476686879882	0.9208476686879895	-0.1049296085960074	-0.1744320371770605	0.1502505292401041	0.01315866978977899	-0.1227386500918023	-0.15692479262555	-0.4141391089593272	1.587139582296096	-0.03056451395278604	0.5657970288922083	-0.8379948389140349	1.777925304941916	1.777925304941917	0.1456866071946908	6.687546052215029e-05	0.434646986909642	0.1147134229170644	-0.2704601525439277	0.01866369321089746	-0.004514091290044953	-0.2479856499251689	0.08384801773427902	0.04766552953317043	0.3271110696805847	-17.08632598463138	-19.45551113497374	4.641857754083093	-9.108095208375188	-701.6410664058919	-77.39235227826678	-9.773578692972128	0.2951836870371412	0.6676760235171864	-0.1886062355718061	-1.526918557971386	0.3286552730927639	-0.4985876183812524	1.878696836318493	-1.429441618428404	-1.429441618428404	-0.2348503453465535	-0.003290962559393819	-0.2688318643971543	0.3355636489625616	-2.49934872805304e-07	-1.637644086215311e-07	1.4873199961017e-06	1.372198162067936e-07	-2.75249955541877e-07	-1.013042772575632e-07	-2.139125659689109e-07
0.51	-0.09477536684321927	-0.04265762881973436	0.8029187414194324	0.9438912601161347	-0.3304871925556304	-0.07229268707835985	-0.7984508311017572	0.93855271218528	0.9385527121852817	-0.103486907805249	-0.174431480424015	0.1545824972675172	0.01432132041597052	-0.1197395535300518	-0.1502467523778803	-0.4157492830597413	1.571197053305812	-0.02744528142140058	0.5608909338758383	-0.8189413561874055	1.762833239413155	1.762833239413155	0.1428593998915198	3.943211410982787e-05	0.4316744917721422	0.1177902432681626	-0.2766478600883643	0.01905629077991718	-0.004658475950656929	-0.2515317047386778	0.0826493864395438	0.04769236403507393	0.3333203968898557	-17.7307832633381	-19.29848875643163	4.553044335532954	-8.828492872015048	-706.1403650106018	-77.18816665018771	-9.052721788217186	0.3047534019137707	0.6678336657116742	-0.1332281422895416	-1.659785300857749	0.3023850834458796	-0.4978483676125997	1.93194376815117	-1.586570314451422	-1.586570314451452	-0.305774875883806	-0.002937051676774915	-0.322275725861025	0.2896221792084627	-2.409424682309723e-07	-1.570144532729247e-07	1.454709840030529e-06	1.334971579710712e-07	-2.617928342161105e-07	-7.176089041048637e-08	-2.098044862193413e-07
0.52	-0.09595735420916951	-0.04412671095325232	0.7987555284268301	0.9595182061119479	-0.3307462512541834	-0.06671018605092652	-0.8065427656204456	0.9560993387684139	0.9560993387684161	-0.1020723028781386	-0.1744312913106325	0.1588825768660685	0.01551391543587803	-0.1166412265215106	-0.1435700865174179	-0.4167996629606882	1.553979915063492	-0.02437293527863967	0.5555357218855586	-0.799357082368136	1.746241922110338	1.746241922110337	0.1400674344650915	-6.652472087255684e-06	0.4282693011372572	0.1207023016602611	-0.2828355676328009	0.01944888834893691	-0.004802860611268917	-0.2550777595521866	0.08145075514480857	0.04771919853697743	0.3395297240991267	-18.37728711708906	-19.14126428789153	4.464378570303537	-8.592236726020024	-710.7026670191603	-77.03552279779801	-8.333950559519016	0.3150297763952903	0.6674011460757365	-0.07664739567832657	-1.781840408378776	0.3192779953678551	-0.5884110131632294	1.984855054846508	-1.729291973239526	-1.729291973239526	-0.22780196999801	-0.007019210516328245	-0.3553709638741847	0.3026112571626075	-2.363908099072093e-07	-1.893750321602902e-07	1.415862011650284e-06	1.25722180835703e-07	-2.551108146378377e-07	-5.675845915252699e-08	-2.097009829566787e-07
0.53	-0.0971078551053411	-0.04552906306353468	0.7945846467929284	0.9749666170214499	-0.3309748720888865	-0.06118345051075878	-0.8144363937145914	0.9734726574789332	0.9734726574789334	-0.1006854876230928	-0.1744317301329908	0.1631465289405905	0.01673476080365605	-0.1134414053765829	-0.1369032141530631	-0.4172796416676429	1.53548900764448	-0.02136178439660727	0.5497539627372832	-0.7792981618827685	1.728180121337907	1.728180121337908	0.1372895349193314	-7.687675844308945e-05	0.4244582690169447	0.1234375947805522	-0.2887033925864191	0.01966269562852155	-0.004902920873833725	-0.2589064968102437	0.08055260507408479	0.04760282163307813	0.3454642596720369	-18.93154375942782	-18.929188544606	4.356907704617932	-8.364516190432296	-715.2168276654315	-76.827357796947	-7.621736789864938	0.3250685015710657	0.66592281718519	-0.01917010561591908	-1.91473353447908	0.2902670091156765	-0.5818647190348131	2.026966732121878	-1.880836998262004	-1.880836998261964	-0.3037112171387194	-0.006112499725657084	-0.4033975390226794	0.2544811433316773	-2.274559597417761e-07	-1.876538095483862e-07	1.376042537143112e-06	1.211401781585956e-07	-2.435776377758791e-07	-3.173632511783568e-08	-2.051953409024818e-07
0.54	-0.09822583574645753	-0.04686482794305954	0.7904118659724747	0.9902237153315986	-0.3311737347398703	-0.05571629383274881	-0.8221273213665355	0.9906581156079247	0.9906581156079231	-0.09932663681755934	-0.1744326888906188	0.1673704850533267	0.01798205766341085	-0.110137175510473	-0.1302526403659147	-0.4171795002710723	1.5157173951928	-0.01842129853478509	0.5436199494540034	-0.7588169939278009	1.708669805804787	1.708669805804788	0.1344745445626244	-0.0001106395260167698	0.4202701087801156	0.125992600055616	-0.2945712175400372	0.01987650290810618	-0.005002981136398498	-0.262735234068288	0.07965445500336099	0.04748644472917871	0.3513987952449402	-19.48752857146719	-18.7196042515451	4.25302672062285	-8.185008397484062	-719.7849931300007	-76.67340299614237	-6.939122404207899	0.335911520631747	0.6641414306344517	0.03937662502676188	-2.037981414912565	0.3051449913258112	-0.6588618401641068	2.069304548766518	-2.018994925377489	-2.018994925377489	-0.2352201321872288	0.0002730932401023992	-0.4307965871775798	0.266553688117141	-2.136716207302396e-07	-1.4822506187346e-07	1.335148049899766e-06	1.200908280736064e-07	-2.266772230681403e-07	4.371437520899624e-09	-1.958192474193534e-07
0.55	-0.09931034068195285	-0.04813423849262158	0.7862429753642601	1.005276945248258	-0.3313435223551009	-0.0503122610320972	-0.8296114044620877	1.007641420101532	1.007641420101532	-0.09799598899539372	-0.1744338438776274	0.1715507351933191	0.01925403389780612	-0.1067529491975278	-0.1236388562451424	-0.4165023641455955	1.494732557488936	-0.01555208947730757	0.5371230430231408	-0.7379389791000516	1.687762888370566	1.687762888370567	0.1316514765745469	-0.0001255293884662806	0.4157194955536504	0.128366923699693	-0.3002018979232526	0.01997969031408966	-0.00506019102311884	-0.2665350856637881	0.07855901212729029	0.04728311887409092	0.3570584296370574	-20.1044860911662	-18.45937222930172	4.138545645584198	-7.854443703798883	-724.1867921122424	-76.46539840140474	-6.291743436855885	0.3412880426476788	0.6586128016926559	0.09627719848345645	-2.158165261450886	0.2752495601963673	-0.6548128856219099	2.106146862165618	-2.160732693374043	-2.160732693374063	-0.3063911231246771	-0.002884410409364675	-0.476255122119622	0.21737938330685	-1.978588713129066e-07	-1.002766371279361e-07	1.288465134751828e-06	1.193189971736866e-07	-2.084630621821375e-07	4.108808681762086e-08	-1.844171948956973e-07
0.5600000000000001	-0.1003606813831144	-0.04933778802119711	0.7820837351357353	1.020114440725214	-0.3314851297403091	-0.04497513886396912	-0.8368848880268851	1.024408816912612	1.024408816912614	-0.0966936800513102	-0.1744352506401449	0.175683666914699	0.02054865490479294	-0.1033043286437117	-0.1170804361686085	-0.4152494243331052	1.472570507251966	-0.01278525253031419	0.5302378229492946	-0.7166970877768427	1.66548826929916	1.665488269299161	0.128806768946203	-0.0001609946277999146	0.4108064250576402	0.130521554573925	-0.3058325783064679	0.02008287772007313	-0.005117400909839141	-0.2703349372592883	0.07746356925121957	0.04707979301900312	0.3627180640291747	-20.72379508629231	-18.20184285516348	4.028053994914257	-7.569154780367825	-728.6479714123184	-76.30953201953751	-5.680180160457401	0.348790368805922	0.6530686217867837	0.1545373624294907	-2.273423921534015	0.2846705692289833	-0.7365245687608806	2.142079847858446	-2.292535252814453	-2.292535252814452	-0.2395480602405042	-0.003841982137587174	-0.503288041086541	0.2226151341481545	-1.796120294086178e-07	-4.210459989769548e-08	1.234836106118378e-06	1.188801892958499e-07	-1.88672405882218e-07	7.853540010392525e-08	-1.70583991523408e-07
0.5700000000000001	-0.1013762600056259	-0.05047607894251938	0.777939897879169	1.034724608947305	-0.3315994454606002	-0.03970886632463079	-0.8439442482545403	1.040946805065929	1.04094680506593	-0.0954195854811543	-0.1744370021221693	0.1797657741579621	0.02186390786255744	-0.0998023710459871	-0.110591576080992	-0.4134216630420381	1.449275476340331	-0.01009194421288264	0.5229413665730815	-0.6951287925864447	1.641892299637989	1.641892299637989	0.1260268284890656	-0.0001953102676680342	0.405561450446545	0.1324968826228995	-0.3111765070802674	0.02011699630270763	-0.005132368942167051	-0.2741753654712173	0.07634045590893852	0.04675056112851655	0.3680732807093741	-21.34961737362087	-17.88346388831953	3.902116711998278	-7.193664914641912	-732.9347673095397	-76.07375017918028	-5.104647065962768	0.3522358189277573	0.6447442308724717	0.211314607628542	-2.385713634803037	0.2593785445791456	-0.737648382569565	2.171129129794916	-2.425654529870515	-2.425654529870535	-0.2950114916459067	-0.003886154470964528	-0.5431305423873434	0.1800283465672453	-1.612198294233767e-07	1.509390964960954e-08	1.177452834801983e-06	1.179987202164294e-07	-1.692525126234262e-07	1.125946594481277e-07	-1.56264176095857e-07
